<?xml version="1.0" encoding="utf-8"?>
<!-- Uploaded to: SVG Repo, www.svgrepo.com, Generator: SVG Repo Mixer Tools -->
<svg width="800px" height="800px" viewBox="0 0 1024 1024" class="icon"  version="1.1" xmlns="http://www.w3.org/2000/svg"><path d="M494.4 273.6L752 531.2c6.4 6.4 17.6 7.2 24 0.8 28.8-26.4 106.4-97.6 216-196.8-33.6-62.4-76.8-120.8-128.8-172.8-52.8-52.8-111.2-96-172.8-128.8-100 109.6-171.2 187.2-196.8 216-7.2 6.4-6.4 16.8 0.8 24z" fill="#938993" /><path d="M764.8 544.8c-7.2 0-13.6-2.4-18.4-8L488.8 279.2c-10.4-9.6-10.4-25.6-1.6-35.2 26.4-28.8 97.6-106.4 196.8-216 2.4-2.4 6.4-3.2 9.6-1.6 64 34.4 123.2 78.4 174.4 130.4 52 52 96 110.4 130.4 175.2 1.6 3.2 0.8 7.2-1.6 9.6C888 440.8 810.4 512 781.6 538.4c-4.8 4-10.4 6.4-16.8 6.4zM692 43.2C594.4 150.4 524.8 226.4 499.2 254.4c-3.2 4-3.2 9.6 0.8 13.6l257.6 257.6c2.4 2.4 4.8 3.2 7.2 3.2 2.4 0 4-0.8 6.4-2.4 28-25.6 104-95.2 211.2-192.8-33.6-60.8-75.2-116.8-124.8-165.6C808 118.4 752.8 76.8 692 43.2z" fill="#6A576D" /><path d="M726.4 506.4l-207.2-208-286.4 223.2c-25.6 20-45.6 46.4-56.8 76.8l-143.2 368c-2.4 5.6-1.6 15.2 3.2 19.2l260.8-258.4c-16-20.8-20-55.2-0.8-74.4 20.8-20.8 55.2-20.8 76 0 20.8 20.8 20.8 55.2 0 76-19.2 19.2-54.4 14.4-76-1.6L36 985.6c4.8 4.8 16 5.6 20 4l364-136c31.2-11.2 58.4-31.2 78.4-57.6l228-289.6z" fill="#F1ED7B" /><path d="M519.2 298.4l-71.2 56 223.2 222.4 55.2-70.4z" fill="#0E1115" /><path d="M50.4 998.4c-4 0-14.4-0.8-20-7.2-8-7.2-7.2-20.8-4.8-28l143.2-368c12-31.2 32.8-59.2 59.2-80l286.4-223.2c3.2-2.4 8-2.4 10.4 0.8l207.2 207.2c3.2 3.2 3.2 7.2 0.8 10.4l-227.2 290.4c-21.6 27.2-49.6 48-82.4 60l-364 136c-3.2 1.6-6.4 1.6-8.8 1.6z m247.2-260.8L50.4 982.4h3.2l364-136c29.6-11.2 55.2-30.4 75.2-55.2l223.2-284.8-197.6-196.8-280 218.4c-24.8 19.2-43.2 44-54.4 73.6l-143.2 368v0.8l245.6-244c-14.4-23.2-16.8-58.4 4-79.2 12-12 27.2-18.4 44-18.4s32 6.4 44 18.4 18.4 27.2 18.4 44-6.4 32-18.4 44c-9.6 9.6-23.2 15.2-39.2 15.2-14.4-0.8-29.6-4.8-41.6-12.8z m4.8-16c10.4 7.2 24 12 36.8 12 8 0 19.2-1.6 28-10.4s13.6-20 13.6-32.8c0-12-4.8-24-13.6-32.8-8.8-8.8-20-13.6-32.8-13.6-12 0-24 4.8-32.8 13.6-16 16.8-12.8 46.4 0.8 64z" fill="#6A576D" /></svg>